<?xml version="1.0" encoding="UTF-8" ?>
<!DOCTYPE svg PUBLIC "-//W3C//DTD SVG 1.1//EN" "http://www.w3.org/Graphics/SVG/1.1/DTD/svg11.dtd">
<svg width="392pt" height="73pt" viewBox="0 0 392 73" version="1.1" xmlns="http://www.w3.org/2000/svg">
<g id="#000000ff">
<path fill="#000000" opacity="1.00" d=" M 144.74 0.74 C 152.17 0.73 159.60 0.73 167.02 0.73 C 171.60 0.87 176.39 1.21 180.46 3.51 C 190.02 8.68 190.78 25.08 180.69 30.14 C 192.32 33.44 196.25 50.30 187.60 58.56 C 183.40 63.13 176.87 63.86 171.02 63.98 C 162.26 64.03 153.50 63.99 144.74 63.99 C 144.73 42.91 144.72 21.83 144.74 0.74 M 157.01 10.26 C 156.99 15.51 157.00 20.75 157.00 26.00 C 161.94 25.69 167.11 26.77 171.89 25.17 C 178.39 22.62 176.65 11.31 169.89 10.38 C 165.60 10.10 161.30 10.35 157.01 10.26 M 157.01 36.74 C 157.00 42.40 156.99 48.07 157.01 53.74 C 162.59 53.52 168.33 54.36 173.77 52.78 C 180.48 50.74 180.29 39.44 173.58 37.49 C 168.20 35.99 162.52 37.04 157.01 36.74 Z" />
<path fill="#000000" opacity="1.00" d=" M 279.75 3.72 C 284.00 2.88 288.24 2.01 292.50 1.19 C 292.35 6.85 292.69 12.52 292.24 18.17 C 295.73 17.91 299.24 17.98 302.74 18.02 C 302.73 21.52 302.74 25.02 302.72 28.51 C 299.23 28.45 295.74 28.45 292.25 28.48 C 292.91 35.70 291.94 43.00 292.77 50.19 C 293.99 54.00 298.89 53.23 301.94 52.65 C 302.56 56.50 303.27 60.34 303.81 64.20 C 297.54 64.98 290.37 65.92 284.92 61.93 C 280.59 58.76 279.71 53.01 279.72 47.99 C 279.81 41.49 279.50 34.98 280.05 28.49 C 277.70 28.47 275.35 28.46 273.01 28.46 C 272.99 24.97 272.99 21.47 273.00 17.98 C 275.35 17.96 277.71 18.03 280.06 18.23 C 279.78 13.40 279.63 8.56 279.75 3.72 Z" />
<path fill="#000000" opacity="1.00" d=" M 325.40 17.63 C 333.77 16.16 343.27 18.48 348.86 25.19 C 354.55 31.99 355.48 41.72 353.07 50.02 C 351.54 55.75 347.40 60.74 341.86 62.95 C 334.09 66.06 324.66 66.14 317.37 61.70 C 307.63 55.73 304.95 42.40 308.40 32.08 C 310.81 24.56 317.77 19.11 325.40 17.63 M 327.37 26.55 C 321.54 28.55 319.89 35.62 320.39 41.11 C 320.74 46.16 322.21 52.45 327.49 54.46 C 331.04 55.26 335.25 54.62 337.79 51.80 C 340.39 48.49 340.77 44.03 340.68 39.96 C 340.48 35.92 339.58 31.51 336.54 28.61 C 334.20 26.19 330.50 25.81 327.37 26.55 Z" />
<path fill="#000000" opacity="1.00" d=" M 195.75 18.26 C 200.04 18.32 204.33 18.13 208.62 18.39 C 208.50 20.51 208.44 22.64 208.39 24.77 C 212.94 17.99 222.23 16.29 229.56 19.06 C 227.88 22.58 226.12 26.06 224.55 29.63 C 218.62 25.51 209.24 29.55 208.90 36.97 C 208.50 45.96 208.84 54.98 208.74 63.98 C 204.41 64.01 200.07 64.00 195.74 63.99 C 195.74 48.75 195.72 33.51 195.75 18.26 Z" />
<path fill="#000000" opacity="1.00" d=" M 238.46 19.65 C 244.29 17.24 250.88 17.05 257.04 18.15 C 263.44 19.24 269.34 24.41 270.14 31.05 C 271.09 39.33 270.62 47.69 270.73 56.00 C 270.76 58.82 272.07 61.39 272.96 64.00 C 268.23 64.00 263.49 64.00 258.76 64.00 C 258.61 62.35 258.46 60.70 258.30 59.05 C 251.97 65.51 241.29 66.91 233.42 62.55 C 225.42 58.06 225.55 44.91 233.31 40.26 C 239.86 36.30 247.91 38.18 254.96 36.03 C 257.59 35.07 258.53 31.45 256.51 29.43 C 252.25 25.77 244.36 26.82 242.49 32.61 C 238.45 31.41 234.25 30.82 230.24 29.51 C 231.62 25.33 234.33 21.46 238.46 19.65 M 245.03 45.28 C 241.87 45.84 239.46 49.76 241.52 52.60 C 244.49 56.58 250.55 55.71 254.22 53.22 C 257.64 51.07 257.67 46.64 257.77 43.06 C 253.62 44.34 249.23 44.30 245.03 45.28 Z" />
<path fill="#000000" opacity="1.00" d=" M 357.84 18.20 C 362.09 18.35 366.34 18.16 370.59 18.36 C 370.49 20.49 370.45 22.63 370.39 24.77 C 374.94 17.99 384.22 16.30 391.56 19.05 C 389.89 22.58 388.12 26.05 386.56 29.63 C 382.45 26.99 376.46 27.62 373.26 31.38 C 371.18 33.72 370.69 36.98 370.72 40.01 C 370.74 48.00 370.72 55.99 370.74 63.99 C 366.40 64.01 362.07 64.00 357.74 63.99 C 357.80 48.73 357.60 33.46 357.84 18.20 Z" />
</g>
<g id="#f73312ff">
<path fill="#f73312" opacity="1.00" d=" M 0.00 20.74 C 17.26 14.48 34.80 8.95 52.17 2.99 C 52.18 14.53 52.18 26.07 52.17 37.62 L 52.17 37.95 C 38.34 42.36 24.65 47.19 10.87 51.75 C 7.27 52.87 3.79 54.51 0.00 54.91 L 0.00 20.74 Z" />
</g>
<g id="#fbab00ff">
<path fill="#fbab00" opacity="1.00" d=" M 52.17 37.62 C 69.36 31.94 86.48 26.02 103.64 20.25 C 103.66 31.86 103.63 43.47 103.65 55.08 C 88.14 60.37 72.61 65.62 57.08 70.85 C 55.54 71.41 54.03 72.09 52.67 73.00 L 52.23 73.00 C 52.09 61.32 52.24 49.64 52.17 37.95 L 52.17 37.62 Z" />
</g>
</svg>
